<?xml version="1.0" standalone="no"?>
<!DOCTYPE svg PUBLIC "-//W3C//DTD SVG 20010904//EN"
 "http://www.w3.org/TR/2001/REC-SVG-20010904/DTD/svg10.dtd">
<svg version="1.0" xmlns="http://www.w3.org/2000/svg"
 width="421.000000pt" height="421.000000pt" viewBox="0 0 421.000000 421.000000"
 preserveAspectRatio="xMidYMid meet">
<metadata>
Created by potrace 1.11, written by Peter Selinger 2001-2013
</metadata>
<g transform="translate(0.000000,421.000000) scale(0.100000,-0.100000)"
fill="#000000" stroke="none">
<path d="M1287 3790 c-10 -16 -17 -31 -17 -32 1 -2 -4 -16 -10 -33 -7 -16 -13
-34 -14 -40 -2 -5 -6 -17 -9 -25 -13 -30 -69 -204 -73 -224 -2 -12 -8 -32 -13
-46 -5 -14 -13 -43 -17 -65 -4 -22 -8 -44 -10 -50 -6 -27 -15 -74 -19 -110 -3
-22 -7 -56 -10 -75 -7 -50 -7 -258 0 -300 11 -64 12 -154 3 -185 -5 -16 -11
-40 -14 -52 -2 -12 -8 -33 -13 -45 -5 -13 -9 -27 -10 -33 -13 -90 -93 -274
-142 -328 -45 -50 -53 -57 -88 -81 -35 -24 -77 -35 -194 -51 -30 -4 -47 -11
-47 -20 0 -7 32 -46 70 -85 39 -40 70 -80 70 -91 0 -29 -72 -59 -142 -59 -83
0 -91 -5 -72 -41 27 -54 113 -146 163 -175 39 -23 47 -44 18 -45 -117 -7 -123
-10 -85 -42 55 -45 72 -57 84 -57 7 0 14 -4 16 -9 4 -9 228 -123 228 -115 0 3
16 -4 35 -16 19 -12 35 -19 35 -16 0 4 11 -1 25 -10 14 -9 25 -13 25 -10 0 4
12 -2 27 -11 15 -10 27 -17 28 -15 0 5 38 -8 67 -24 15 -8 31 -15 35 -16 5 0
31 -11 60 -24 28 -13 57 -24 62 -24 6 0 11 -4 11 -10 0 -5 5 -10 11 -10 5 0
36 -12 67 -26 102 -47 124 -56 136 -58 6 -1 31 -11 56 -23 52 -23 112 -47 123
-49 4 -1 9 -3 12 -4 3 -1 10 -4 15 -5 6 -1 12 -4 15 -5 3 -1 9 -3 14 -4 4 0
33 -25 62 -54 78 -78 144 -106 244 -107 90 0 141 19 212 80 23 19 50 35 60 35
34 0 333 77 503 130 91 28 181 53 200 56 173 28 550 161 550 195 0 8 -19 15
-60 23 -14 2 -36 8 -49 14 -24 8 -21 11 42 46 69 39 187 142 187 163 0 7 -10
15 -22 17 -13 3 -36 7 -53 11 -38 7 -44 9 -80 26 -81 38 -75 62 35 148 86 68
93 84 39 95 -13 3 -35 8 -49 11 -14 3 -38 8 -54 10 -140 26 -242 204 -271 475
-10 89 -18 186 -17 200 1 26 13 80 25 110 8 21 27 108 32 150 3 19 7 53 10 75
8 60 9 260 0 345 -7 79 -43 286 -71 408 -13 60 -20 72 -36 72 -18 0 -111 -40
-213 -92 -245 -124 -319 -167 -370 -215 -11 -10 -42 -37 -69 -60 -48 -42 -49
-42 -82 -28 -19 8 -37 14 -39 15 -3 0 -6 0 -7 1 -8 2 -46 11 -63 14 -11 2 -31
7 -45 11 -43 11 -272 14 -325 3 -27 -5 -59 -7 -70 -4 -11 2 -40 32 -65 66 -43
57 -128 142 -202 201 -18 14 -43 35 -55 45 -11 10 -31 25 -43 33 -23 16 -87
63 -106 79 -5 4 -21 14 -35 21 -13 7 -26 16 -29 19 -13 16 -88 61 -101 61 -8
0 -23 -13 -32 -30z"/>
</g>
</svg>
